<svg width="100%" height="100%" viewBox="0 0 101.406 88.08">
  <g transform="translate(-129 -114.598)">
    <g transform="translate(-139.514 90)">
      <path
        d="M342.131 55.811a.617.617 0 01-.463-.68q.053-.417.081-.842t.028-.856A13.526 13.526 0 00315.74 48.3a.16.16 0 01-.256.059 10.748 10.748 0 00-17.884 8.035q0 .31.018.616t.053.607a.541.541 0 01-.119.405.573.573 0 01-.374.2 14.482 14.482 0 107.4 27.729.472.472 0 01.6.207 14.561 14.561 0 005.215 5.4 14.487 14.487 0 0014.943-.028 14.559 14.559 0 005.222-5.465.3.3 0 01.4-.126 16.162 16.162 0 1011.173-30.132z"
        fill="#1890ff" />
    </g>
  </g>
</svg>